<?xml version="1.0" encoding="UTF-8" standalone="no"?><!DOCTYPE svg PUBLIC "-//W3C//DTD SVG 1.1//EN" "http://www.w3.org/Graphics/SVG/1.1/DTD/svg11.dtd"><svg width="100%" height="100%" viewBox="0 0 1017 600" version="1.1" xmlns="http://www.w3.org/2000/svg" xmlns:xlink="http://www.w3.org/1999/xlink" xml:space="preserve" style="fill-rule:evenodd;clip-rule:evenodd;stroke-linecap:round;stroke-linejoin:round;stroke-miterlimit:1.5;"><g id="Spike"><g><path d="M805.739,188.32l68.412,15.448l-68.412,-8.329l0,-7.119Z" style="fill:#e6e6e6;stroke:#000;stroke-width:0.52px;"/><path d="M760.706,204.084l32.402,-11.018l-22.389,91.039l-10.013,-80.021Z" style="fill:#fafafa;stroke:#000;stroke-width:0.52px;"/><path d="M760.706,204.084l19.005,-26.667l38.001,86.414l-57.006,-59.747Z" style="fill:#fff;stroke:#000;stroke-width:0.52px;"/><path d="M779.711,177.417l26.028,10.903l11.973,75.511l-38.001,-86.414Z" style="fill:#ededed;stroke:#000;stroke-width:0.52px;"/><path d="M805.739,188.32l-26.028,-10.903l106.584,-25.414l-80.556,36.317Z" style="fill:#ccc;stroke:#000;stroke-width:0.52px;"/><path d="M749.692,151.766l30.019,25.651l-113.223,41.543l83.204,-67.194Z" style="fill:#fff;stroke:#000;stroke-width:0.52px;"/><path d="M787.042,142.75l47.523,-61.638l-23.762,63.463l-23.761,-1.825Z" style="fill:#f0f0f0;stroke:#000;stroke-width:0.52px;"/><path d="M749.692,151.737l-12.418,-90.407l36.242,60.212l-23.824,30.195Z" style="fill:#fff;stroke:#000;stroke-width:0.52px;"/><path d="M649.266,152.003l88.008,-5.059l11.998,4.793l-100.006,0.266Z" style="fill:#fff;stroke:#000;stroke-width:0.52px;"/><path d="M874.151,203.768l-34.206,-30.869l-34.206,15.421l68.412,15.448Z" style="fill:#fcfcfc;stroke:#000;stroke-width:0.52px;"/><path d="M886.295,152.003l-106.584,25.414l12.536,-34.667l94.048,9.253" style="fill:#fff;stroke:#000;stroke-width:0.52px;"/><path d="M779.711,177.417l-113.223,41.543l94.218,-14.876l19.005,-26.667Z" style="fill:#f0f0f0;stroke:#000;stroke-width:0.52px;"/><path d="M750.631,210.651l20.088,73.454l-10.013,-80.021l-10.075,6.567Z" style="fill:#e0e0e0;stroke:#000;stroke-width:0.52px;"/><path d="M750.631,205.674l-43.717,55.973l53.792,-57.563l-10.075,1.59Z" style="fill:#e6e6e6;stroke:#000;stroke-width:0.52px;"/><path d="M706.914,261.647l20.615,-52.325l23.102,-3.648l-43.717,55.973Z" style="fill:#fcfcfc;stroke:#000;stroke-width:0.52px;"/><path d="M737.274,61.33l12.418,90.673l-12.418,-5.059l0,-85.614Z" style="fill:#f7f7f7;stroke:#000;stroke-width:0.52px;"/><path d="M737.274,146.944l-38.005,-41.972l38.005,14.118l0,27.854Z" style="fill:#fff;stroke:#000;stroke-width:0.52px;"/><path d="M834.565,81.112l-47.523,61.638l0,-21.666l47.523,-39.972Z" style="fill:#fff;stroke:#000;stroke-width:0.52px;"/><path d="M649.266,152.032l68.663,25.385l31.343,-25.68l-100.006,0.295Z" style="fill:#f2f2f2;stroke:#000;stroke-width:0.52px;"/><path d="M697.968,170.232l-37.77,15.131l57.731,-7.946l-19.961,-7.185Z" style="fill:#fff;stroke:#000;stroke-width:0.52px;"/><path d="M660.198,185.363l43.687,3.396l14.044,-11.342l-57.731,7.946Z" style="fill:#f0f0f0;stroke:#000;stroke-width:0.52px;"/><path d="M792.247,97.684l-42.555,54.082l30.019,25.651l12.536,-79.733Z" style="fill:#f2f2f2;stroke:#000;stroke-width:0.52px;"/><path d="M779.711,177.417l12.536,-34.667l0,-45.066l-12.536,79.733Z" style="fill:#ccc;stroke:#000;stroke-width:0.52px;"/><path d="M699.269,104.972l25.524,42.689l12.481,-0.717l-38.005,-41.972Z" style="fill:#f0f0f0;stroke:#000;stroke-width:0.52px;"/><path d="M772.575,119.978l0,-118.978" style="fill:none;stroke:#000;stroke-width:0.5px;"/></g></g></svg>