<?xml version="1.0" encoding="UTF-8" standalone="no"?><!DOCTYPE svg PUBLIC "-//W3C//DTD SVG 1.1//EN" "http://www.w3.org/Graphics/SVG/1.1/DTD/svg11.dtd"><svg width="100%" height="100%" viewBox="0 0 5650 3334" version="1.1" xmlns="http://www.w3.org/2000/svg" xmlns:xlink="http://www.w3.org/1999/xlink" xml:space="preserve" style="fill-rule:evenodd;clip-rule:evenodd;stroke-linecap:round;stroke-linejoin:round;stroke-miterlimit:1.5;"><g id="Spike"><g><path d="M4476.33,1046.22l380.067,85.82l-380.067,-46.272l0,-39.548Z" style="fill:#e6e6e6;stroke:#000;stroke-width:2.89px;"/><path d="M4226.14,1133.8l180.011,-61.207l-124.38,505.77l-55.631,-444.563Z" style="fill:#fafafa;stroke:#000;stroke-width:2.89px;"/><path d="M4226.14,1133.8l105.584,-148.15l211.119,480.079l-316.703,-331.929Z" style="fill:#fff;stroke:#000;stroke-width:2.89px;"/><path d="M4331.73,985.648l144.602,60.576l66.517,419.503l-211.119,-480.079Z" style="fill:#ededed;stroke:#000;stroke-width:2.89px;"/><path d="M4476.33,1046.22l-144.602,-60.576l592.132,-141.186l-447.53,201.762Z" style="fill:#ccc;stroke:#000;stroke-width:2.89px;"/><path d="M4164.95,843.145l166.774,142.503l-629.019,230.798l462.245,-373.301Z" style="fill:#fff;stroke:#000;stroke-width:2.89px;"/><path d="M4372.45,793.053l264.016,-342.432l-132.008,352.575l-132.008,-10.143Z" style="fill:#f0f0f0;stroke:#000;stroke-width:2.89px;"/><path d="M4164.95,842.986l-68.987,-502.262l201.346,334.512l-132.359,167.75Z" style="fill:#fff;stroke:#000;stroke-width:2.89px;"/><path d="M3607.04,844.462l488.931,-28.108l66.653,26.632l-555.584,1.476Z" style="fill:#fff;stroke:#000;stroke-width:2.89px;"/><path d="M4856.4,1132.04l-190.034,-171.494l-190.033,85.674l380.067,85.82Z" style="fill:#fcfcfc;stroke:#000;stroke-width:2.89px;"/><path d="M4923.86,844.462l-592.132,141.186l69.646,-192.595l522.486,51.409" style="fill:#fff;stroke:#000;stroke-width:2.89px;"/><path d="M4331.73,985.648l-629.019,230.798l523.435,-82.648l105.584,-148.15Z" style="fill:#f0f0f0;stroke:#000;stroke-width:2.89px;"/><path d="M4170.18,1170.28l111.6,408.078l-55.631,-444.563l-55.969,36.485Z" style="fill:#e0e0e0;stroke:#000;stroke-width:2.89px;"/><path d="M4170.18,1142.63l-242.872,310.957l298.841,-319.794l-55.969,8.837Z" style="fill:#e6e6e6;stroke:#000;stroke-width:2.89px;"/><path d="M3927.3,1453.59l114.523,-290.691l128.349,-20.266l-242.872,310.957Z" style="fill:#fcfcfc;stroke:#000;stroke-width:2.89px;"/><path d="M4095.97,340.724l68.987,503.738l-68.987,-28.108l0,-475.63Z" style="fill:#f7f7f7;stroke:#000;stroke-width:2.89px;"/><path d="M4095.97,816.354l-211.139,-233.175l211.139,78.434l0,154.741Z" style="fill:#fff;stroke:#000;stroke-width:2.89px;"/><path d="M4636.47,450.621l-264.016,342.432l0,-120.364l264.016,-222.068Z" style="fill:#fff;stroke:#000;stroke-width:2.89px;"/><path d="M3607.04,844.621l381.461,141.027l174.123,-142.662l-555.584,1.635Z" style="fill:#f2f2f2;stroke:#000;stroke-width:2.89px;"/><path d="M3877.6,945.733l-209.829,84.063l320.728,-44.148l-110.899,-39.915Z" style="fill:#fff;stroke:#000;stroke-width:2.89px;"/><path d="M3667.77,1029.8l242.705,18.863l78.023,-63.011l-320.728,44.148Z" style="fill:#f0f0f0;stroke:#000;stroke-width:2.89px;"/><path d="M4401.37,542.69l-236.42,300.455l166.774,142.503l69.646,-442.958Z" style="fill:#f2f2f2;stroke:#000;stroke-width:2.89px;"/><path d="M4331.73,985.648l69.646,-192.595l0,-250.363l-69.646,442.958Z" style="fill:#ccc;stroke:#000;stroke-width:2.89px;"/><path d="M3884.83,583.179l141.8,237.161l69.339,-3.986l-211.139,-233.175Z" style="fill:#f0f0f0;stroke:#000;stroke-width:2.89px;"/><path d="M4292.08,666.544l0,-660.988" style="fill:none;stroke:#000;stroke-width:2.78px;"/></g></g></svg>