<?xml version="1.0" encoding="UTF-8" standalone="no"?><!DOCTYPE svg PUBLIC "-//W3C//DTD SVG 1.1//EN" "http://www.w3.org/Graphics/SVG/1.1/DTD/svg11.dtd"><svg width="100%" height="100%" viewBox="0 0 798 600" version="1.1" xmlns="http://www.w3.org/2000/svg" xmlns:xlink="http://www.w3.org/1999/xlink" xml:space="preserve" style="fill-rule:evenodd;clip-rule:evenodd;stroke-linecap:round;stroke-linejoin:round;stroke-miterlimit:1.5;"><rect id="Artboard2" x="-2" y="0" width="800" height="600" style="fill:none;"/><clipPath id="_clip1"><rect id="Artboard21" x="-2" y="0" width="800" height="600"/></clipPath><g clip-path="url(#_clip1)"><g id="Layer6"><g><path d="M600.361,202.737l76.085,17.18l-76.085,-9.263l0,-7.917Z" style="fill:#f0f0f0;stroke:#000;stroke-width:0.58px;"/><path d="M550.973,220.998l35.34,-12.982l-8.389,99.542l-26.951,-86.56Z" style="fill:#f0f0f0;stroke:#000;stroke-width:0.58px;"/><path d="M550.277,220.268l21.137,-29.657l42.263,96.105l-63.4,-66.448Z" style="fill:#fff;stroke:#000;stroke-width:0.58px;"/><path d="M571.414,190.611l28.947,12.126l13.316,83.979l-42.263,-96.105Z" style="fill:#f0f0f0;stroke:#000;stroke-width:0.58px;"/><path d="M600.361,202.737l-28.947,-12.126l118.537,-28.264l-89.59,40.39Z" style="fill:#ccc;stroke:#000;stroke-width:0.58px;"/><path d="M538.028,162.084l33.386,28.527l-125.922,46.202l92.536,-74.729Z" style="fill:#fff;stroke:#000;stroke-width:0.58px;"/><path d="M579.566,152.056l52.853,-68.551l-26.426,70.581l-26.427,-2.03Z" style="fill:#f0f0f0;stroke:#000;stroke-width:0.58px;"/><path d="M538.028,162.052l-13.811,-100.547l40.307,66.965l-26.496,33.582Z" style="fill:#fff;stroke:#000;stroke-width:0.58px;"/><path d="M426.34,162.347l97.877,-5.627l13.344,5.332l-111.221,0.295Z" style="fill:#fff;stroke:#000;stroke-width:0.58px;"/><path d="M676.446,219.917l-38.043,-34.331l-38.042,17.151l76.085,17.18Z" style="fill:#fff;stroke:#000;stroke-width:0.58px;"/><path d="M689.951,162.347l-118.537,28.264l13.942,-38.555l104.595,10.291" style="fill:#fff;stroke:#000;stroke-width:0.58px;"/><path d="M571.414,190.611l-125.922,46.202l104.761,-16.541l21.161,-29.661Z" style="fill:#ccc;stroke:#000;stroke-width:0.58px;"/><path d="M546.952,225.381l30.972,82.177l-27.367,-87.682l-3.605,5.505Z" style="fill:#ccc;stroke:#000;stroke-width:0.58px;"/><path d="M550.403,220.4l-47.548,68.632l15.045,-63.651l32.503,-4.981Z" style="fill:#f0f0f0;stroke:#000;stroke-width:0.58px;"/><path d="M502.855,289.032l5.598,-62.16l9.447,-1.491l-15.045,63.651" style="fill:#eaeaea;stroke:#000;stroke-width:0.58px;"/><path d="M524.217,61.505l13.811,100.842l-13.811,-5.627l0,-95.215Z" style="fill:#f0f0f0;stroke:#000;stroke-width:0.58px;"/><path d="M524.217,156.72l-42.267,-46.678l42.267,15.701l0,30.977Z" style="fill:#fff;stroke:#000;stroke-width:0.58px;"/><path d="M632.419,83.505l-52.853,68.551l0,-24.096l52.853,-44.455Z" style="fill:#fff;stroke:#000;stroke-width:0.58px;"/><path d="M426.34,162.379l76.363,28.232l34.858,-28.559l-111.221,0.327Z" style="fill:#f0f0f0;stroke:#000;stroke-width:0.58px;"/><path d="M480.503,182.62l-42.005,16.829l64.205,-8.838l-22.2,-7.991Z" style="fill:#fff;stroke:#000;stroke-width:0.58px;"/><path d="M438.498,199.449l48.586,3.776l15.619,-12.614l-64.205,8.838Z" style="fill:#f0f0f0;stroke:#000;stroke-width:0.58px;"/><path d="M585.356,101.936l-47.328,60.148l33.386,28.527l13.942,-88.675Z" style="fill:#f0f0f0;stroke:#000;stroke-width:0.58px;"/><path d="M571.414,190.611l13.942,-38.555l0,-50.12l-13.942,88.675Z" style="fill:#ccc;stroke:#000;stroke-width:0.58px;"/><path d="M481.95,110.042l28.387,47.476l13.88,-0.798l-42.267,-46.678Z" style="fill:#f0f0f0;stroke:#000;stroke-width:0.58px;"/></g><path d="M564.504,128.436l0,-128.436" style="fill:none;stroke:#000;stroke-width:1px;"/></g></g></svg>